<svg width="173" height="79" fill="none" xmlns="http://www.w3.org/2000/svg"><g clip-path="url(#clip0_12_13)"><path d="M57.514 53.167c-.25-.526-.455-1.463-.612-2.81-2.025 2.202-4.442 3.303-7.252 3.303-2.511 0-4.575-.74-6.192-2.219-1.601-1.495-2.402-3.385-2.402-5.67 0-2.777 1.005-4.93 3.014-6.459 2.025-1.545 4.866-2.317 8.523-2.317h4.239v-2.096c0-1.594-.456-2.86-1.366-3.796-.91-.954-2.252-1.43-4.026-1.43-1.554 0-2.857.41-3.909 1.233-1.051.821-1.577 1.816-1.577 2.983h-4.38c0-1.332.448-2.614 1.342-3.846.91-1.25 2.135-2.235 3.673-2.959C48.143 26.361 49.847 26 51.7 26c2.935 0 5.235.772 6.899 2.317 1.663 1.529 2.527 3.64 2.59 6.336V46.93c0 2.449.298 4.396.894 5.843v.394h-4.568zm-7.228-3.476c1.366 0 2.66-.37 3.885-1.11 1.224-.739 2.111-1.7 2.66-2.884v-5.473h-3.413c-5.337 0-8.006 1.636-8.006 4.906 0 1.43.455 2.548 1.366 3.353.91.805 2.08 1.208 3.508 1.208zm19.873 3.476V30.018h-4.027v-3.525h4.027v-2.737c0-2.86.73-5.07 2.19-6.631 1.46-1.562 3.523-2.342 6.192-2.342 1.004 0 2.001.14 2.99.419l-.235 3.698a11.967 11.967 0 00-2.355-.222c-1.413 0-2.504.435-3.273 1.306-.769.855-1.154 2.087-1.154 3.698v2.81h5.44v3.526h-5.44v23.149H70.16zm24.628.493c-3.453 0-6.263-1.183-8.429-3.55-2.166-2.383-3.25-5.563-3.25-9.54v-.839c0-2.646.48-5.004 1.437-7.075.973-2.087 2.323-3.715 4.05-4.881C90.337 26.59 92.22 26 94.245 26c3.313 0 5.887 1.142 7.724 3.426 1.836 2.285 2.755 5.555 2.755 9.812v1.898h-17.26c.063 2.63.793 4.758 2.19 6.386 1.413 1.61 3.203 2.416 5.369 2.416 1.538 0 2.84-.33 3.908-.986 1.068-.658 2.002-1.53 2.802-2.614l2.661 2.17c-2.135 3.435-5.337 5.152-9.607 5.152zm-.541-23.913c-1.758 0-3.234.674-4.427 2.021-1.193 1.332-1.93 3.205-2.213 5.621h12.762v-.345c-.126-2.317-.722-4.109-1.79-5.374-1.067-1.282-2.511-1.923-4.332-1.923z" fill="#C59872"/><path d="M121.653 31.029l8.218-13.756h5.32l-10.83 17.799 11.09 18.095h-5.368l-8.43-14.003-8.476 14.003h-5.345l11.113-18.095-10.854-17.8h5.297l8.265 13.757zm23.569 8.086v14.052h-4.52V17.272h12.643c3.752 0 6.687 1.003 8.806 3.008 2.135 2.005 3.203 4.66 3.203 7.963 0 3.484-1.045 6.171-3.132 8.061-2.072 1.874-5.047 2.81-8.923 2.81h-8.077zm0-3.87h8.123c2.417 0 4.27-.592 5.557-1.776 1.288-1.2 1.931-2.925 1.931-5.177 0-2.136-.643-3.846-1.931-5.128-1.287-1.281-3.052-1.947-5.298-1.996h-8.382v14.076z" fill="#fff"/><mask id="mask0_12_13" style="mask-type:luminance" maskUnits="userSpaceOnUse" x="0" y="-1" width="39" height="55"><path d="M.052-.127h37.972v53.538H.052V-.127z" fill="#fff"/></mask><g mask="url(#mask0_12_13)"><path d="M19.157 21.62c-6.193-.027-11.226 5.23-11.252 11.732-.027 6.502 4.98 11.786 11.172 11.814 6.193.028 11.226-5.23 11.252-11.732.027-6.53-4.98-11.814-11.172-11.814zm5.665 17.763a8.9 8.9 0 00.422-2.684c0-4.676-3.584-8.466-8.037-8.494-2.24 0-4.243.94-5.719 2.463 1.08-3.348 4.111-5.783 7.669-5.755 4.453 0 8.063 3.818 8.037 8.494a8.69 8.69 0 01-2.372 5.976z" fill="#fff"/><path d="M21.423 13.514a12.36 12.36 0 00-1.054-.111c-1.212 1.632-1.871 3.32-2.24 4.842.342-.028.685-.028 1.027-.028.712 0 1.397.055 2.082.166.37 1.632 1.002 2.74 1.002 2.74s-.738-4.538 2.424-8.329c4.031-4.842-1.186-9.324-1.186-9.324s2.372 3.514-1.107 8.245a6.94 6.94 0 00-.948 1.799z" fill="#C59872"/><path d="M25.375 14.62a10.903 10.903 0 00-2.134 4.233c5.217 1.633 8.837 5.472 8.837 9.57h4.664c-1.048-6.598-4.594-11.451-11.288-13.913-.026.027-.026.055-.079.11z" fill="#C59872"/><path d="M19.077 48.569c-7.984-.028-14.44-6.834-14.414-15.218.027-7.304 4.928-13.363 11.463-14.802.448 1.55 1.001 2.573 1.001 2.573s-.87-5.45 2.899-10.016C24.901 5.241 18.629-.127 18.629-.127s2.846 4.233-1.344 9.905a8.503 8.503 0 00-1.58 3.901C6.824 15.367.077 23.502.051 33.324.026 44.39 8.537 53.384 19.077 53.41c9.697.028 16.57-5.114 17.782-14.964h-4.664c-1.186 7.138-5.977 10.122-13.118 10.122z" fill="#C59872"/><path d="M33.772 32.069h-3.377c-.74 0-1.34.628-1.34 1.402 0 .775.6 1.403 1.34 1.403h3.377c.74 0 1.34-.628 1.34-1.403 0-.774-.6-1.402-1.34-1.402z" fill="#fff"/></g><path d="M30.284 71.636c-.103.917-.427 1.626-.973 2.126-.542.496-1.265.744-2.167.744-.978 0-1.763-.367-2.354-1.102-.588-.734-.882-1.716-.882-2.947v-.834c0-.806.136-1.514.41-2.126.276-.611.667-1.08 1.171-1.405.504-.33 1.088-.494 1.752-.494.88 0 1.585.258 2.116.774.53.512.84 1.223.927 2.132h-1.098c-.095-.691-.302-1.191-.62-1.5-.315-.31-.756-.465-1.325-.465-.698 0-1.246.27-1.644.81-.394.54-.591 1.307-.591 2.304v.84c0 .94.187 1.689.563 2.245.375.555.9.833 1.575.833.607 0 1.071-.143 1.394-.428.325-.29.542-.793.648-1.507h1.098zm5.128-.53c0-.631.118-1.199.353-1.703.239-.504.569-.893.99-1.167a2.616 2.616 0 011.45-.411c.838 0 1.514.304 2.03.91.52.608.78 1.416.78 2.424v.078c0 .627-.116 1.191-.348 1.691a2.677 2.677 0 01-.983 1.161 2.62 2.62 0 01-1.468.417c-.834 0-1.51-.304-2.03-.91-.516-.608-.774-1.412-.774-2.413v-.077zm1.058.131c0 .715.157 1.288.472 1.72.319.434.743.65 1.274.65.535 0 .96-.218 1.274-.655.315-.44.472-1.056.472-1.846 0-.707-.16-1.278-.483-1.715-.319-.44-.743-.661-1.274-.661-.52 0-.939.216-1.257.65-.319.432-.478 1.051-.478 1.857zm10.458 3.15v-5.591h-.972v-.852h.972v-.661c0-.69.176-1.225.529-1.602.353-.377.851-.566 1.496-.566.242 0 .483.034.722.102l-.057.893a2.896 2.896 0 00-.569-.054c-.34 0-.604.106-.79.316-.186.206-.279.504-.279.893v.679h1.314v.852H47.98v5.591h-1.052zm8.126 0v-5.591h-.972v-.852h.972v-.661c0-.69.177-1.225.53-1.602.352-.377.85-.566 1.495-.566.243 0 .483.034.722.102l-.057.893a2.898 2.898 0 00-.568-.054c-.342 0-.605.106-.79.316-.187.206-.28.504-.28.893v.679h1.314v.852h-1.314v5.591h-1.052zm10.026.12c-.834 0-1.513-.287-2.036-.858-.523-.576-.785-1.344-.785-2.305v-.202c0-.64.116-1.21.347-1.71.235-.504.561-.897.978-1.178.421-.286.876-.43 1.365-.43.8 0 1.422.277 1.866.829.443.551.665 1.341.665 2.37v.458h-4.169c.015.635.191 1.15.53 1.542a1.65 1.65 0 001.296.584c.371 0 .686-.08.944-.238a2.41 2.41 0 00.677-.631l.642.523c-.515.83-1.289 1.245-2.32 1.245zm-.13-5.777c-.426 0-.782.163-1.07.488-.288.322-.467.774-.535 1.358h3.083v-.083c-.03-.56-.175-.993-.432-1.298-.258-.31-.607-.465-1.047-.465zm10.383 5.776c-.834 0-1.513-.286-2.036-.857-.523-.576-.785-1.344-.785-2.305v-.202c0-.64.116-1.21.347-1.71.235-.504.561-.897.978-1.178.421-.286.876-.43 1.365-.43.8 0 1.422.277 1.866.829.443.551.665 1.341.665 2.37v.458h-4.169c.015.635.192 1.15.53 1.542a1.65 1.65 0 001.296.584c.371 0 .686-.08.944-.238.258-.159.483-.37.677-.631l.642.523c-.515.83-1.289 1.245-2.32 1.245zm-.13-5.776c-.425 0-.782.163-1.07.488-.288.322-.466.774-.535 1.358h3.083v-.083c-.03-.56-.174-.993-.432-1.298-.258-.31-.607-.465-1.047-.465zm21.325 5.657H95.43V70.38h-4.175v4.008h-1.092v-8.67h1.092v3.728h4.175v-3.728h1.097v8.67zm5.572-3.281c0-.631.118-1.199.353-1.703.238-.504.568-.893.989-1.167a2.618 2.618 0 011.451-.411c.837 0 1.514.304 2.03.91.519.608.779 1.416.779 2.424v.078c0 .627-.116 1.191-.347 1.691a2.671 2.671 0 01-.984 1.161 2.618 2.618 0 01-1.467.417c-.834 0-1.511-.304-2.03-.91-.516-.608-.774-1.412-.774-2.413v-.077zm1.058.131c0 .715.157 1.288.472 1.72.318.434.743.65 1.274.65.534 0 .959-.218 1.274-.655.315-.44.472-1.056.472-1.846 0-.707-.161-1.278-.484-1.715-.318-.44-.743-.661-1.273-.661-.52 0-.939.216-1.257.65-.319.432-.478 1.051-.478 1.857zm13.739 2.513c-.409.504-1.01.756-1.802.756-.656 0-1.157-.198-1.502-.595-.341-.401-.514-.993-.517-1.775v-4.192h1.052v4.162c0 .977.379 1.465 1.137 1.465.804 0 1.339-.313 1.604-.94v-4.687h1.052v6.443h-1l-.024-.637zm10.288-1.072c0-.298-.109-.528-.324-.69-.213-.168-.586-.31-1.121-.43-.531-.119-.954-.262-1.268-.428-.311-.167-.543-.365-.694-.596a1.487 1.487 0 01-.222-.822c0-.528.212-.974.637-1.34.429-.365.974-.547 1.638-.547.698 0 1.263.188 1.695.566.436.377.655.86.655 1.447h-1.059c0-.302-.123-.562-.37-.78-.242-.219-.549-.328-.921-.328-.383 0-.682.087-.899.262a.839.839 0 00-.324.685c0 .266.1.466.302.601.2.135.562.264 1.087.387.526.123.952.27 1.278.441.327.17.568.377.723.62.159.237.238.53.238.875 0 .575-.219 1.038-.659 1.387-.44.346-1.011.518-1.712.518-.493 0-.928-.091-1.308-.274a2.171 2.171 0 01-.892-.762 1.926 1.926 0 01-.319-1.066h1.051c.02.37.16.663.422.881.266.215.614.322 1.046.322.398 0 .716-.083.956-.25a.794.794 0 00.364-.679zm9.053 1.828c-.835 0-1.513-.286-2.037-.857-.523-.576-.784-1.344-.784-2.305v-.202c0-.64.116-1.21.346-1.71.236-.504.562-.897.979-1.178a2.382 2.382 0 011.365-.43c.8 0 1.422.277 1.866.829.444.551.665 1.341.665 2.37v.458h-4.169c.015.635.191 1.15.529 1.542.341.39.773.584 1.296.584.372 0 .688-.08.945-.238a2.43 2.43 0 00.677-.631l.643.523c-.516.83-1.29 1.245-2.321 1.245zm-.131-5.776c-.424 0-.781.163-1.069.488-.288.322-.466.774-.535 1.358h3.083v-.083c-.03-.56-.175-.993-.432-1.298-.259-.31-.607-.465-1.047-.465z" fill="#fff"/></g><defs><clipPath id="clip0_12_13"><path fill="#fff" d="M0 0h173v79H0z"/></clipPath></defs></svg>